<svg xmlns="http://www.w3.org/2000/svg" xmlns:xlink="http://www.w3.org/1999/xlink" version="1.1" id="Layer_1" x="0px" y="0px" viewBox="0 0 128 128" style="enable-background:new 0 0 128 128;" xml:space="preserve" width="128px" height="128px">

<g id="face">
	<path d="M64,4.5C36.2,4.5,8,28.1,8,55.8s44.3,67.7,56.2,67.7c13.2,0,55.8-39.9,55.8-67.7S91.8,4.5,64,4.5z" fill="#ADBCC3"/>
	<path d="M64,4.5c14.5,0,29.1,6.4,39.8,16.5C93,9.5,77.2,2,61.5,2c-27.8,0-56,23.6-56,51.3c0,15.6,14.1,35.1,28.5,49.2   C20.5,88.6,8,70.5,8,55.8C8,28.1,36.2,4.5,64,4.5z" fill="#ADBCC3"/>
</g>
<path id="mouth" d="M64,102.3c-9.4,0-16.1-5.5-18.1-8.6c-0.8-1-0.9-2.3-0.4-3.4c0.4-0.7,1.2-1.2,2-1.2  c0.3,0,0.6,0.1,0.9,0.2C53.1,90.8,57.2,93,64,93s10.9-2.2,15.6-3.6c0.3-0.1,0.6-0.2,0.9-0.2c0.8,0,1.6,0.4,2,1.2  c0.5,1.1,0.3,2.5-0.4,3.4C80.1,96.8,73.4,102.3,64,102.3z" fill="#422B0D"/>
<path id="left_eye" d="M54,81.6c-3,3.9-17.7,3.9-28.9-6.4c-10.1-9.3-9.5-25.6-6.1-28.9s19.2-3.4,28.8,6.4  S57.7,77.9,54,81.6z" fill="#422B0D"/>
<path id="right_eye" d="M80.1,52.6c9.7-9.7,25.5-9.6,28.8-6.3s3.5,19.1-6.1,28.8S77.6,85,73.9,81.4S70.4,62.3,80.1,52.6  z" fill="#422B0D"/>
</svg>