<?xml version="1.0" encoding="utf-8"?>
<!-- Generator: Adobe Illustrator 27.2.0, SVG Export Plug-In . SVG Version: 6.00 Build 0)  -->
<svg version="1.1" id="Layer_1" xmlns="http://www.w3.org/2000/svg" xmlns:xlink="http://www.w3.org/1999/xlink" x="0px" y="0px"
	 viewBox="0 0 640 360" enable-background="new 0 0 640 360" xml:space="preserve"  width="640" height="360">
<rect x="-0.4" fill="#A6E1DA" width="640" height="358"/>
<g opacity="0.5">
	<polygon fill="#FFFFFF" points="18,137.4 31.9,119.5 43.6,118.7 57.1,104.2 67.2,113.7 85.2,102.3 93.9,117.1 109.2,90.5 
		121.1,110.2 145.9,81.3 152,80.9 158.9,94.1 179.7,103 189.1,102.4 200.1,101.7 205.9,108.1 213,107.7 240.5,136.6 	"/>
	<polygon opacity="0.5" fill="#BDEAE6" enable-background="new    " points="78.1,127 64.8,127 52.2,121.3 62.1,108.9 57.1,104.2 
		43.6,118.7 31.9,119.5 18,137.4 78.1,137.2 	"/>
	<polygon opacity="0.5" fill="#BDEAE6" enable-background="new    " points="109.2,90.5 93.9,117.1 111.4,103.8 	"/>
	<polygon opacity="0.5" fill="#BDEAE6" enable-background="new    " points="108.5,126.1 98.4,137.1 187.7,136.8 190.8,136.5 
		152.1,126.1 152.1,117.1 135.6,113.8 145.9,81.3 121.1,110.2 118.3,123.2 	"/>
	<polygon opacity="0.5" fill="#BDEAE6" enable-background="new    " points="179.7,103 173.9,100.6 171.9,103.8 171.9,120.6 
		179.1,113.8 200.1,101.7 189.1,102.4 	"/>
	<polygon fill="#BDEAE6" points="67.2,113.7 72,117.1 89.2,109.2 85.2,102.3 	"/>
</g>
<rect x="-0.4" y="136" fill="#2EB9C7" width="640" height="224"/>
<path fill="#FFFFFF" d="M-6.4,146"/>
<g opacity="0.1">
	<polygon fill="#FFFFFF" points="18.2,135.1 31.5,152.6 43.2,153.4 56.2,167.6 66.7,158.2 84.4,169.3 93.6,154.9 108.1,180.8 
		120.6,161.6 144.6,189.8 150.7,190.2 158.1,177.3 179.2,168.6 188.6,169.2 199.7,169.9 205.7,163.6 212.8,164.1 241.3,135.8 	"/>
</g>
<path fill="#FFFFFF" d="M451.5,102.7"/>
<g opacity="0.3">
	<path opacity="0.8" fill="#FFFFFF" enable-background="new    " d="M455.1,86.7c-5.2-6.3-20.2-4-25.2-1.5c-1.5,0.7-3.1,1.7-4.8,2.6
		c-0.8-2.8-3.7-5-7.5-5.2c-2.2-0.1-4.3,0.5-5.8,1.5c-3.7-5.8-7.7-12.7-15.7-10.7c-10.1,2.5-10.6-3.4-17-1c-3.1,1.2-5.4,4-7.7,6.7
		c-0.8-0.2-1.6-0.4-2.5-0.5c-4.6-0.3-8.5,2.5-8.9,6.3c0,0.3,0,0.7,0,1c-3.2,0.1-2.4-1.1-7.2-0.8c-3.8,0.2-8.5,1.9-12.3,3.4
		c0.1-0.3,0.1-0.6,0.2-0.9c0.3-3.7-3.1-7-7.6-7.2c-2-0.1-3.9,0.4-5.5,1.3c-1-1-2.1-1.7-3.4-1.9c-7.6-0.9-13.5,3.3-16.6,7.8
		c-0.1,0-3.7,11.4,5.4,14.4c15.4,5.2,49.8,3.4,72.1,4.7c35.5,2.1,69.3-1,71.5-1.9c2.4-1,24.4-4.5,28.1-4.2
		C472.1,96.8,464.7,98.3,455.1,86.7z"/>
	<path opacity="0.4" fill="#A6E1DA" enable-background="new    " d="M456.4,104.8c0.8-0.3,3.6-0.9,7.2-1.5
		c-6.6-1.3-11.9-2.9-18.3-9.5c-5.1-5.2-19.5-3.5-24.3-1.4c-1.4,0.6-3,1.4-4.5,2.1c-0.8-2.3-3.7-4.2-7.2-4.4
		c-2.1-0.1-4.1,0.3-5.6,1.2c-3.6-4.8-7.6-10.5-15.3-9c-9.6,2-10.2-2.9-16.4-1c-2.9,0.9-5.2,3.2-7.4,5.5c-0.7-0.2-1.5-0.3-2.4-0.4
		c-4.4-0.3-8.2,2-8.5,5.1c0,0.3,0,0.5,0,0.8c-3.1,0.1-2.3-0.9-6.9-0.8c-3.7,0.1-8.1,1.5-11.8,2.7c0.1-0.2,0.1-0.5,0.1-0.7
		c0.3-3.1-3-5.8-7.4-6c-2-0.1-3.8,0.3-5.2,1c-1-0.8-2-1.4-3.3-1.6c-5.1-0.6-9.4,0.9-12.5,3.1c-0.5,3.5-0.4,9.7,6,11.9
		c15.4,5.2,49.8,3.4,72.1,4.7C420.4,108.8,454.2,105.7,456.4,104.8z"/>
	<path opacity="0.8" fill="#FFFFFF" enable-background="new    " d="M612,66.5c0-2-1.9-3.5-4.3-3.5c-0.1,0-0.3,0-0.4,0
		c-1.7-3-5.2-6-10.2-5.7c-0.9,0-1.6,0.5-2.3,1.1c-0.9-0.7-2.1-1.1-3.4-1.1c-2.9,0-5.3,2-5.3,4.4c0,0.2,0,0.4,0.1,0.6
		c-2.4-1.1-5.3-2.4-7.7-2.7c-3.1-0.3-2.6,0.5-4.7,0.3c0-0.2,0.1-0.4,0.1-0.6c0-2.4-2.4-4.4-5.3-4.4c-0.6,0-1.1,0.1-1.6,0.2
		c-1.3-1.9-2.7-3.8-4.6-4.7c-4-1.8-4.7,2-11,0c-3.4-1.1-5.9,0.6-8,2.9c-0.4-0.1-0.8-0.1-1.3-0.1c-1.4,0-2.7,0.5-3.6,1.2
		c-1.5-3.2-5.2-5.4-9.5-5.4c-2.9,0-5.5,1-7.4,2.7c-1.9-1.6-4.5-2.7-7.4-2.7c-5.6,0-10.2,3.8-10.2,8.4c-2.3,0.5-4.1,2.2-4.1,4.3
		c0,0.7-0.4,1.1,0,1.7c-6.3,3.4-4.2,8.4,2.3,9c15.2,1.9,32.8,1,58,1c35.6,0,64.5-1.5,64.5-3.4c-10.6-0.8-4.9-1.5-13.1-2
		C611.8,67.6,612,67.1,612,66.5z"/>
	<path opacity="0.4" fill="#A6E1DA" enable-background="new    " d="M607,70.7c-0.1,0-0.3,0-0.4,0c-1.6-2.6-5.1-5.1-9.9-4.9
		c-0.8,0-1.6,0.4-2.2,0.9c-0.9-0.6-2.1-0.9-3.3-0.9c-2.9,0-5.2,1.7-5.2,3.8c0,0.2,0,0.3,0.1,0.5c-2.3-1-5.1-2.1-7.5-2.3
		c-3-0.3-2.5,0.4-4.5,0.2c0-0.2,0.1-0.4,0.1-0.5c0-2.1-2.3-3.8-5.2-3.8c-0.5,0-1.1,0.1-1.5,0.2c-1.3-1.6-2.6-3.3-4.5-4
		c-3.9-1.6-4.6,1.7-10.7,0c-3.3-0.9-5.8,0.5-7.8,2.5c-0.4-0.1-0.8-0.1-1.2-0.1c-1.4,0-2.6,0.4-3.5,1c-1.4-2.7-5-4.6-9.3-4.6
		c-2.8,0-5.4,0.9-7.2,2.3c-1.8-1.4-4.4-2.7-7.2-2.3c-5.7,0.8-12,5-9.9,10c0.5,1.1-1.2,2.5-1.6,3.9c0.2,0,0.4,0.1,0.7,0.1
		c15.2,1.9,32.8,1,58,1c19,0,36.1-0.4,48-1.1C610.3,71.6,608.8,70.7,607,70.7z"/>
</g>
<path fill="#2EB9C7" d="M170.8,239.9"/>
<polygon fill="#21AEBD" points="392.9,235.8 298.5,218.9 240.7,228.7 216.5,216.3 113.1,214 91.8,193.9 0,193.1 0,302.6 229.8,346 
	512.9,346 530.9,251.2 426.5,255.9 "/>
<g>
	<polygon fill="#FFFFFF" points="-0.4,291.4 40.6,284.1 67.6,291.4 137.6,278.1 163.2,278.1 190.6,270.1 232.3,270.1 272.6,261.1 
		291.6,266.4 312.6,261.1 364.7,261.1 396.6,252 409.6,260.8 437.2,252 450.6,266.4 528.6,252 568.5,252 639.6,236 639.6,360 
		-0.4,359.3 	"/>
	<polygon opacity="0.6" fill="#BDEAE6" enable-background="new    " points="67.6,291.3 15.3,315.7 103.4,299.9 158.1,291.3 
		184.6,291.3 232.3,270 190.6,270 163.2,278 137.6,278 	"/>
	<polygon opacity="0.6" fill="#BDEAE6" enable-background="new    " points="397.3,276.8 375.2,297.6 407.8,287.5 427.8,282.4 
		436.8,284.1 470.6,263 444.6,267 432,269.7 423.3,268.1 	"/>
	<polygon opacity="0.7" fill="#BDEAE6" enable-background="new    " points="479.6,333 439.6,323.7 261.6,342.1 213.6,333.5 
		0,342.3 0,360.1 639.7,360.1 639.7,305.3 	"/>
</g>
<path fill="#21AEBD" d="M627.2,146l-74.4,1.5c-2.1,0-2.2,3.4-0.1,3.5l0,0c2.1,0.1,2,3.5-0.1,3.5L301,154.3c-0.2,0-0.3,0-0.5,0.1
	l-9.2,2.8c-1.8,0.5-1.5,3.4,0.4,3.4l90.1,2.7l48.7,3.9h0.1l64.6,1.4c2.1,0,2.2,3.4,0.1,3.5l-92.9,6c-0.9,0.1-1.6,0.8-1.6,1.8v0.8
	c0,0.9,0.7,1.7,1.6,1.8L638.9,193c0.9,0,1.7-0.8,1.7-1.8v-43.5c0-1-0.7-1.8-1.7-1.8h-11.7V146z"/>
<path fill="#1A9FAD" d="M175.9,240.8c0,0-5.1-2.9-5.4-2.9l-128.9-4.8c-2-0.1-2.1-3.1-0.1-3.2l0,0c2-0.1,2-3.1,0-3.2l-38.1-2.9
	L0,223.6v42.6l117-4.7c0.8,0,1.5-0.7,1.5-1.5v-0.9c0-0.8-0.6-1.5-1.4-1.7l-46.9-7.3c-2-0.3-1.7-3.2,0.2-3.2h33.1c0.1,0,0.1,0,0.2,0
	l25-2.5h0.1l46.1-0.6C176.7,243.8,177.3,241.6,175.9,240.8z"/>
</svg>
