<svg xmlns="http://www.w3.org/2000/svg" xmlns:xlink="http://www.w3.org/1999/xlink" version="1.1" id="Layer_1" x="0px" y="0px" viewBox="0 0 128 128" style="enable-background:new 0 0 128 128;" xml:space="preserve" width="128px" height="128px">

<g id="face_00000049942391237835679270000002906405953712398464_">
	
		<radialGradient id="face_00000086670994612607515870000006845780492486931863_" cx="63.6" cy="-3046.8999" r="56.9597" gradientTransform="matrix(1 0 0 -1 0 -2984)" gradientUnits="userSpaceOnUse">
		<stop offset="0.5" style="stop-color:#FDE030"/>
		<stop offset="0.92" style="stop-color:#F7C02B"/>
		<stop offset="1" style="stop-color:#F4A223"/>
	</radialGradient>
	<path id="face" style="fill:url(#face_00000086670994612607515870000006845780492486931863_);" d="M63.6,118.8   c-27.9,0-58-17.5-58-55.9S35.7,7,63.6,7c15.5,0,29.8,5.1,40.4,14.4c11.5,10.2,17.6,24.6,17.6,41.5s-6.1,31.2-17.6,41.4   C93.4,113.6,79,118.8,63.6,118.8z"/>
	<path d="M111.5,29.7c5.3,8.6,8.1,18.8,8.1,30.2c0,16.9-6.1,31.2-17.6,41.4c-10.6,9.3-25,14.5-40.4,14.5   c-18.1,0-37-7.3-48.2-22.9c10.8,17.7,31,25.9,50.2,25.9c15.4,0,29.8-5.2,40.4-14.5c11.5-10.2,17.6-24.5,17.6-41.4   C121.6,50.2,118.1,38.8,111.5,29.7z" fill="#EB8F00"/>
</g>
<path id="mouth" d="M64,93.8c-11.5,0-19.7-6-22.2-9.7c-0.9-1.2-1.1-2.8-0.5-4.2c0.5-0.9,1.4-1.4,2.4-1.4  c0.4,0,0.7,0.1,1.1,0.2c6.2,1.9,12.7,2.8,19.2,2.8c6.5,0,13-0.9,19.2-2.8c0.3-0.1,0.7-0.2,1.1-0.2c1,0,1.9,0.5,2.4,1.4  c0.6,1.4,0.4,3-0.5,4.2C83.7,87.8,75.5,93.8,64,93.8z" fill="#422B0D"/>
<g id="eyes">
	<path d="M124,45.4c0,0-4.3,0.1-4.3,3.5c0,8.4,0.1,26.5-22,26.5c-17.7,0-26.1-9.1-27.5-19.2c-0.6-4.2-2-8.8-6.3-8.8   s-5.7,4.5-6.2,8.8c-1.4,10.1-9.8,19.2-27.5,19.2c-22.1,0-22-18.1-22-26.5c0-3.4-4.3-3.5-4.3-3.5v-8.3c6.9-0.9,13.8-1.3,20.6-1.3   c12.5,0,17.5,0,27.4,1c5.9,0.6,12,0.7,12,0.7s6.1-0.1,12-0.7c9.9-1,14.9-1,27.4-1c6.9-0.1,13.8,0.4,20.6,1.3L124,45.4L124,45.4z" fill="#422B0D"/>
	<path d="M21.1,52c-0.1,1.6-0.7,3.1-2.3,3.4c-0.2,0-0.4,0-0.5,0c-1.4,0-2.6-1-2.8-2.4c-0.6-2.8,0.1-5.7,1.8-7.9   c1.6-2,4-3.1,6.6-3.1c1.5-0.1,2.9,1,3,2.5c0,0,0,0.1,0,0.1c0,1.9-1.5,2.7-3,3.2C22.2,48.6,21.1,50.2,21.1,52z" fill="#896024"/>
	<path d="M84.7,52c-0.1,1.6-0.7,3.1-2.3,3.4c-0.2,0-0.4,0-0.5,0c-1.4,0-2.6-1-2.9-2.4c-0.6-2.8,0.1-5.7,1.8-7.9   c1.6-2,4-3.1,6.6-3.1c1.5-0.1,2.8,1,3,2.5c0,0,0,0.1,0,0.1c0,1.9-1.5,2.7-3,3.2C85.8,48.6,84.7,50.2,84.7,52z" fill="#896024"/>
</g>
</svg>