<svg xmlns="http://www.w3.org/2000/svg" width="128px" height="128px" viewBox="0 0 128 128" fill="none">
<path opacity="0.5" d="M106.13 42.4595C106.06 43.7795 107.02 44.9295 108.37 44.8895C109.57 44.8495 110.36 43.4795 110.32 42.5895C110.28 41.6995 109.24 40.6195 108.18 40.5595C107.13 40.4795 106.18 41.6595 106.13 42.4595Z" fill="white"/>
<path opacity="0.5" d="M35.1699 4.45959C34.3299 5.38959 34.5999 6.76959 35.3799 7.27959C36.1599 7.78959 37.3299 7.73959 37.8999 7.03959C38.4099 6.40959 38.4699 5.14958 37.6899 4.36958C37.0199 3.68958 35.7099 3.85959 35.1699 4.45959Z" fill="white"/>
<path d="M113.6 95.23C113.6 95.23 114.75 91.93 115.44 91.89C116.13 91.85 117.13 95.19 117.13 95.19C117.13 95.19 120.55 95.23 120.78 95.73C121.08 96.37 118.59 98.53 118.59 98.53C118.59 98.53 119.4 101.76 119.01 102.14C118.59 102.56 115.63 100.87 115.63 100.87C115.63 100.87 112.6 102.98 111.94 102.41C111.37 101.91 112.55 98.49 112.55 98.49C112.55 98.49 109.71 96.42 109.86 95.84C110.09 95.04 113.6 95.23 113.6 95.23Z" fill="white"/>
<path d="M115.95 36.5798C115.78 38.5798 117.21 40.2798 119.26 40.1598C121.09 40.0498 122.54 38.5098 122.33 36.5998C122.1 34.5398 120.76 33.6698 119.15 33.6098C117.54 33.5498 116.05 35.3698 115.95 36.5798Z" fill="white"/>
<path d="M25.2301 16.2599C25.0001 18.0199 26.1501 19.4699 27.9801 19.4699C29.6501 19.4699 30.9601 17.8699 30.8501 16.1999C30.7301 14.3999 29.4501 13.4699 27.9201 13.5999C26.5001 13.7199 25.3601 15.1999 25.2301 16.2599Z" fill="white"/>
<path opacity="0.5" d="M81.0399 109.17C80.8799 111.04 82.2099 112.62 84.1299 112.51C85.8299 112.41 87.1899 110.97 86.9899 109.19C86.7799 107.26 85.5299 106.45 84.0299 106.4C82.5299 106.35 81.1399 108.04 81.0399 109.17Z" fill="white"/>
<path d="M36.85 74.1201L15.99 113.18L32.41 126.94H60.82L70.58 84.7701L36.85 74.1201Z" fill="url(#paint0_radial_331_3163)"/>
<path d="M19.36 66.2501C18.27 65.0001 12.64 55.6201 9.82996 48.5901C7.01996 41.5601 4.20996 31.8701 4.20996 31.8701L49.37 36.8701L123.44 78.4301C123.44 78.4301 115.94 82.9601 105.94 87.4901C95.94 92.0201 90.94 93.1201 89.85 93.4301C88.76 93.7401 74.82 94.2301 51.57 85.1501C28.74 76.2501 19.36 66.2501 19.36 66.2501Z" fill="#848484"/>
<path d="M16.2999 30.1202L6.50989 29.2002C6.50989 29.2002 5.21989 29.2002 4.47989 30.0302C3.73989 30.8602 4.19989 31.8802 4.19989 31.8802C4.19989 31.8802 24.1999 50.0902 60.1399 64.3902C98.8299 79.7802 123.43 78.4502 123.43 78.4502C123.43 78.4502 124.51 77.9102 124.51 76.8202C124.51 75.7302 123.64 74.9902 123.64 74.9902L62.7299 46.7102L16.2999 30.1202Z" fill="#9A9A9A"/>
<path d="M72.02 30.0495C56.04 23.1995 44.67 24.5795 39.67 24.7395C34.67 24.8995 6.52002 29.1995 6.52002 29.1995C6.52002 29.1995 29.99 48.9595 62.33 61.1495C94.67 73.3395 123.64 74.9795 123.64 74.9795C123.64 74.9795 111.08 59.1195 103.43 51.1495C93.15 40.4495 86.24 36.1395 72.02 30.0495Z" fill="#B0B0B0"/>
<path d="M31.86 27.89C30.43 27.06 18.79 29.16 18.79 32.94C18.79 35.75 24.88 39.11 30.82 42.24C36.03 44.99 44.93 48.73 45.33 46.33C45.8 43.52 35.95 40.88 32.9 35.75C30.66 31.98 33.78 29.02 31.86 27.89Z" fill="#E3E3DF"/>
<path d="M103.38 54.9097C101.49 54.9997 101.3 58.2797 96.56 59.7197C91.82 61.1597 81.7 58.4997 80.45 59.9697C78.04 62.7797 105.39 72.1597 110.84 67.8297C114.89 64.6097 105.14 54.8297 103.38 54.9097Z" fill="#9A9A9A"/>
<path d="M44.81 23.2197C44.81 23.2197 43.33 25.6997 43.61 27.4697C44.07 30.4197 49.61 36.2397 67.24 42.8897C85.5 49.7697 95.03 48.1497 96.23 46.4897C97.1 45.2797 97.06 42.6097 97.06 42.6097L69.82 30.0497L44.81 23.2197Z" fill="#4B7179"/>
<path d="M44.8101 23.2204C44.8101 23.2204 57.1101 1.45044 80.8701 10.2704C102.39 18.2604 97.0601 42.6104 97.0601 42.6104C97.0601 42.6104 68.7401 36.0904 67.1901 35.1504C65.6301 34.2204 44.8101 23.2204 44.8101 23.2204Z" fill="#64DAC1"/>
<path d="M68.7201 38.7297C46.3301 29.9897 44.8101 23.2197 44.8101 23.2197C44.8101 23.2197 53.5701 21.5797 72.6001 28.6697C92.9001 36.2397 97.0601 42.5997 97.0601 42.5997C97.0601 42.5997 87.6401 46.1097 68.7201 38.7297Z" fill="#53B4A0"/>
<path d="M70.8401 29.0297C70.8401 29.0297 72.2801 25.7397 71.9501 24.2297C71.4001 21.7397 69.8101 19.3197 70.8401 16.9397C72.3201 13.5197 75.4101 12.6397 79.4301 14.1697C83.3101 15.6497 84.1301 19.3397 83.0301 21.7397C81.5501 24.9697 79.2501 24.5097 77.5801 25.9897C76.1601 27.2497 75.0901 30.6997 75.0901 30.6997L70.8401 29.0297Z" fill="#53B4A0"/>
<path d="M51.23 27.7399C53.64 28.7099 55.43 23.8199 60.12 19.2999C65.69 13.9299 73.7801 12.1699 73.2301 10.5999C72.6001 8.73993 62.4901 9.62993 55.9001 15.3199C49.6701 20.7099 48.55 26.6499 51.23 27.7399Z" fill="#9CFCEC"/>
<path d="M87.7601 39.9503C87.6301 41.8703 91.4101 42.5703 93.4501 40.9703C96.1801 38.8403 95.9501 33.9503 93.9001 33.7403C91.9801 33.5503 92.2401 36.1703 90.9601 37.3203C89.6801 38.4703 87.8601 38.5203 87.7601 39.9503Z" fill="#9CFCEC"/>
<path d="M33.9799 76.8804C39.3813 76.8804 43.7599 72.4077 43.7599 66.8904C43.7599 61.3731 39.3813 56.9004 33.9799 56.9004C28.5786 56.9004 24.2 61.3731 24.2 66.8904C24.2 72.4077 28.5786 76.8804 33.9799 76.8804Z" fill="url(#paint1_radial_331_3163)"/>
<path d="M54.8999 88.2303C60.9861 88.2303 65.9199 83.4845 65.9199 77.6303C65.9199 71.7761 60.9861 67.0303 54.8999 67.0303C48.8137 67.0303 43.8799 71.7761 43.8799 77.6303C43.8799 83.4845 48.8137 88.2303 54.8999 88.2303Z" fill="url(#paint2_radial_331_3163)"/>
<path d="M75.74 93.2496C80.8541 93.2496 85 89.1306 85 84.0496C85 78.9686 80.8541 74.8496 75.74 74.8496C70.6258 74.8496 66.48 78.9686 66.48 84.0496C66.48 89.1306 70.6258 93.2496 75.74 93.2496Z" fill="url(#paint3_radial_331_3163)"/>
<path d="M104.76 82.5299C106.11 87.1599 103.31 92.0499 98.4901 93.4599C93.6701 94.8699 88.6701 92.2599 87.3201 87.6299C85.9701 82.9999 88.7701 78.1099 93.5901 76.6999C98.4001 75.2899 103.4 77.8999 104.76 82.5299Z" fill="url(#paint4_radial_331_3163)"/>
<path d="M20.3 64.0503C25.7014 64.0503 30.08 59.5776 30.08 54.0603C30.08 48.543 25.7014 44.0703 20.3 44.0703C14.8987 44.0703 10.52 48.543 10.52 54.0603C10.52 59.5776 14.8987 64.0503 20.3 64.0503Z" stroke="url(#paint5_radial_331_3163)" stroke-miterlimit="10"/>
<path d="M31.4299 64.1297C29.6699 65.9897 29.7099 68.9497 31.8999 70.5697C34.0199 72.1397 36.3799 71.1997 37.4699 69.8597C38.5599 68.5197 38.7299 65.6197 36.9999 64.1297C35.2799 62.6397 32.7599 62.7197 31.4299 64.1297Z" fill="#53B4A0"/>
<path d="M32.7599 65.9397C32.0199 66.7397 31.9299 67.9397 32.9199 68.8497C33.8599 69.7097 35.3499 69.3997 35.8999 68.6097C36.5699 67.6497 36.3699 66.2497 35.5099 65.6997C34.6499 65.1497 33.6299 64.9897 32.7599 65.9397Z" fill="#9CFCEC"/>
<path d="M50.2001 76.6896C49.2601 78.9696 50.8301 81.4796 53.7301 82.1896C56.2701 82.8096 58.6001 81.5596 59.1501 79.2796C59.6601 77.1496 58.5601 74.6696 55.8501 74.0196C53.5701 73.4696 51.2401 74.1696 50.2001 76.6896Z" fill="#53B4A0"/>
<path d="M53.1801 76.5796C52.4401 77.3696 52.3501 78.5596 53.3401 79.4496C54.2801 80.2996 55.7701 79.9896 56.3201 79.2196C56.9901 78.2796 56.7901 76.8896 55.9301 76.3496C55.0601 75.7996 54.0401 75.6496 53.1801 76.5796Z" fill="#9CFCEC"/>
<path d="M73.1701 81.0301C71.3501 82.6301 71.3501 85.4901 73.2301 87.3301C74.8701 88.9301 77.2501 88.8201 78.7701 87.0601C80.1901 85.4101 80.5301 82.7701 78.7801 81.0601C77.3001 79.6201 75.1901 79.2601 73.1701 81.0301Z" fill="#53B4A0"/>
<path d="M77.27 82.6496C76.51 81.8696 75.35 81.7396 74.44 82.7196C73.57 83.6596 73.83 85.2096 74.57 85.7996C75.48 86.5196 76.85 86.3596 77.41 85.4796C77.98 84.6196 78.16 83.5696 77.27 82.6496Z" fill="#9CFCEC"/>
<path d="M97.34 80.8303C94.97 80.4103 92.69 82.1103 92.38 84.6303C92.11 86.8303 93.65 88.5603 95.97 88.6503C98.14 88.7403 100.44 87.4303 100.73 85.0903C100.96 83.1103 99.97 81.2903 97.34 80.8303Z" fill="#53B4A0"/>
<path d="M94.4899 84.6502C94.4599 85.7502 95.1799 86.6902 96.5299 86.6702C97.8299 86.6502 98.7599 85.3902 98.6699 84.4302C98.5499 83.2602 97.4799 82.3702 96.4499 82.5702C95.4199 82.7702 94.5299 83.3602 94.4899 84.6502Z" fill="#9CFCEC"/>
<path d="M25.49 46.3402C30.11 49.3502 31.47 55.4602 28.52 59.9802C25.57 64.5002 19.44 65.7302 14.82 62.7202C10.2 59.7102 8.84003 53.6002 11.79 49.0802C14.74 44.5602 20.86 43.3302 25.49 46.3402Z" fill="url(#paint6_radial_331_3163)"/>
<path d="M18.79 50.6197C16.43 51.5997 15.67 53.9397 16.59 56.1897C17.45 58.3097 19.65 59.2497 21.77 58.5497C23.89 57.8497 25.3 55.4097 24.13 52.8997C22.98 50.4497 20.67 49.8397 18.79 50.6197Z" fill="#53B4A0"/>
<path d="M19.1501 52.6297C18.1601 53.2697 17.9501 54.6097 18.6601 55.6697C19.3701 56.7297 20.8501 56.6597 21.6301 56.0197C22.4101 55.3797 22.6201 53.8997 21.8401 52.9797C21.0601 52.0597 19.9501 52.1097 19.1501 52.6297Z" fill="#9CFCEC"/>
<defs>
<radialGradient id="paint0_radial_331_3163" cx="0" cy="0" r="1" gradientUnits="userSpaceOnUse" gradientTransform="translate(50.0214 75.7304) scale(49.0767)">
<stop offset="0.1706" stop-color="#4CF9FF" stop-opacity="0.7"/>
<stop offset="1" stop-color="#4CF9FF" stop-opacity="0"/>
</radialGradient>
<radialGradient id="paint1_radial_331_3163" cx="0" cy="0" r="1" gradientUnits="userSpaceOnUse" gradientTransform="translate(33.9764 66.8892) scale(9.8817)">
<stop stop-color="#53B4A0"/>
<stop offset="1" stop-color="#53B4A0" stop-opacity="0"/>
</radialGradient>
<radialGradient id="paint2_radial_331_3163" cx="0" cy="0" r="1" gradientUnits="userSpaceOnUse" gradientTransform="translate(54.8991 77.634) scale(10.8117 10.1868)">
<stop stop-color="#53B4A0"/>
<stop offset="1" stop-color="#53B4A0" stop-opacity="0"/>
</radialGradient>
<radialGradient id="paint3_radial_331_3163" cx="0" cy="0" r="1" gradientUnits="userSpaceOnUse" gradientTransform="translate(75.7387 84.0457) scale(9.35599 9.10698)">
<stop stop-color="#53B4A0"/>
<stop offset="1" stop-color="#53B4A0" stop-opacity="0"/>
</radialGradient>
<radialGradient id="paint4_radial_331_3163" cx="0" cy="0" r="1" gradientUnits="userSpaceOnUse" gradientTransform="translate(96.0404 85.0796) rotate(-16.3019) scale(8.97134 8.44329)">
<stop stop-color="#53B4A0"/>
<stop offset="1" stop-color="#53B4A0" stop-opacity="0"/>
</radialGradient>
<radialGradient id="paint5_radial_331_3163" cx="0" cy="0" r="1" gradientUnits="userSpaceOnUse" gradientTransform="translate(20.3014 54.0589) scale(10.3817)">
<stop stop-color="#53B4A0" stop-opacity="0.7"/>
<stop offset="1" stop-color="#53B4A0" stop-opacity="0"/>
</radialGradient>
<radialGradient id="paint6_radial_331_3163" cx="0" cy="0" r="1" gradientUnits="userSpaceOnUse" gradientTransform="translate(20.1501 54.5355) rotate(-56.9329) scale(9.88132)">
<stop stop-color="#53B4A0"/>
<stop offset="1" stop-color="#53B4A0" stop-opacity="0"/>
</radialGradient>
</defs>
</svg>